<svg width="294" height="16" viewBox="0 0 294 16" fill="none" xmlns="http://www.w3.org/2000/svg">
<path d="M8.60645 9.75977C8.50618 10.8216 8.11426 11.651 7.43066 12.248C6.74707 12.8405 5.83789 13.1367 4.70312 13.1367C3.91016 13.1367 3.21061 12.9499 2.60449 12.5762C2.00293 12.1979 1.53809 11.6624 1.20996 10.9697C0.881836 10.277 0.710938 9.47266 0.697266 8.55664V7.62695C0.697266 6.68815 0.863607 5.861 1.19629 5.14551C1.52897 4.43001 2.00521 3.87858 2.625 3.49121C3.24935 3.10384 3.9694 2.91016 4.78516 2.91016C5.88346 2.91016 6.76758 3.20866 7.4375 3.80566C8.10742 4.40267 8.49707 5.24577 8.60645 6.33496H6.88379C6.80176 5.61947 6.59212 5.10449 6.25488 4.79004C5.9222 4.47103 5.43229 4.31152 4.78516 4.31152C4.0332 4.31152 3.45443 4.58724 3.04883 5.13867C2.64779 5.68555 2.44271 6.48991 2.43359 7.55176V8.43359C2.43359 9.50911 2.625 10.3294 3.00781 10.8945C3.39518 11.4596 3.96029 11.7422 4.70312 11.7422C5.38216 11.7422 5.89258 11.5895 6.23438 11.2842C6.57617 10.9788 6.79264 10.4707 6.88379 9.75977H8.60645ZM16.0984 6.92285H13.6989V13H12.0378V6.92285H9.66574V5.60352H16.0984V6.92285ZM20.1586 10.6211L21.6625 5.60352H23.433L20.4936 14.1211C20.0424 15.3652 19.2768 15.9873 18.1967 15.9873C17.9552 15.9873 17.6886 15.9463 17.3969 15.8643V14.5791L17.7114 14.5996C18.1306 14.5996 18.4451 14.5221 18.6547 14.3672C18.8689 14.2168 19.0375 13.9616 19.1606 13.6016L19.3998 12.9658L16.8022 5.60352H18.5932L20.1586 10.6211ZM24.3214 11.6738C24.7817 11.1589 25.0893 10.6712 25.2443 10.2109C25.4038 9.74609 25.4995 9.15365 25.5314 8.43359L25.6271 5.60352H30.7609V11.6738H31.7863V15.2012H30.132V13H25.3879V15.2012H23.7062L23.713 11.6738H24.3214ZM26.2697 11.6738H29.1066V7.03223H27.2404L27.1925 8.44727C27.1287 9.80534 26.8211 10.8809 26.2697 11.6738ZM37.747 5.60352H39.4012V13H37.747V8.06445L34.8485 13H33.1942V5.60352H34.8485V10.5391L37.747 5.60352ZM47.3717 5.60352V13H45.7174V10.2861H44.1656L42.5865 13H40.8639L42.607 10.0127C42.1513 9.82129 41.8004 9.54785 41.5543 9.19238C41.3128 8.83691 41.192 8.42904 41.192 7.96875C41.192 7.2806 41.4563 6.71777 41.985 6.28027C42.5182 5.83822 43.2359 5.61263 44.1383 5.60352H47.3717ZM42.8531 8.00977C42.8531 8.31966 42.9671 8.57259 43.1949 8.76855C43.4273 8.95996 43.7236 9.05566 44.0836 9.05566H45.7174V6.92285H44.1861C43.7805 6.92285 43.457 7.02539 43.2154 7.23047C42.9739 7.43555 42.8531 7.69531 42.8531 8.00977Z" fill="#212121"/>
<path d="M8.60645 9.75977C8.50618 10.8216 8.11426 11.651 7.43066 12.248C6.74707 12.8405 5.83789 13.1367 4.70312 13.1367C3.91016 13.1367 3.21061 12.9499 2.60449 12.5762C2.00293 12.1979 1.53809 11.6624 1.20996 10.9697C0.881836 10.277 0.710938 9.47266 0.697266 8.55664V7.62695C0.697266 6.68815 0.863607 5.861 1.19629 5.14551C1.52897 4.43001 2.00521 3.87858 2.625 3.49121C3.24935 3.10384 3.9694 2.91016 4.78516 2.91016C5.88346 2.91016 6.76758 3.20866 7.4375 3.80566C8.10742 4.40267 8.49707 5.24577 8.60645 6.33496H6.88379C6.80176 5.61947 6.59212 5.10449 6.25488 4.79004C5.9222 4.47103 5.43229 4.31152 4.78516 4.31152C4.0332 4.31152 3.45443 4.58724 3.04883 5.13867C2.64779 5.68555 2.44271 6.48991 2.43359 7.55176V8.43359C2.43359 9.50911 2.625 10.3294 3.00781 10.8945C3.39518 11.4596 3.96029 11.7422 4.70312 11.7422C5.38216 11.7422 5.89258 11.5895 6.23438 11.2842C6.57617 10.9788 6.79264 10.4707 6.88379 9.75977H8.60645ZM16.0984 6.92285H13.6989V13H12.0378V6.92285H9.66574V5.60352H16.0984V6.92285ZM20.1586 10.6211L21.6625 5.60352H23.433L20.4936 14.1211C20.0424 15.3652 19.2768 15.9873 18.1967 15.9873C17.9552 15.9873 17.6886 15.9463 17.3969 15.8643V14.5791L17.7114 14.5996C18.1306 14.5996 18.4451 14.5221 18.6547 14.3672C18.8689 14.2168 19.0375 13.9616 19.1606 13.6016L19.3998 12.9658L16.8022 5.60352H18.5932L20.1586 10.6211ZM24.3214 11.6738C24.7817 11.1589 25.0893 10.6712 25.2443 10.2109C25.4038 9.74609 25.4995 9.15365 25.5314 8.43359L25.6271 5.60352H30.7609V11.6738H31.7863V15.2012H30.132V13H25.3879V15.2012H23.7062L23.713 11.6738H24.3214ZM26.2697 11.6738H29.1066V7.03223H27.2404L27.1925 8.44727C27.1287 9.80534 26.8211 10.8809 26.2697 11.6738ZM37.747 5.60352H39.4012V13H37.747V8.06445L34.8485 13H33.1942V5.60352H34.8485V10.5391L37.747 5.60352ZM47.3717 5.60352V13H45.7174V10.2861H44.1656L42.5865 13H40.8639L42.607 10.0127C42.1513 9.82129 41.8004 9.54785 41.5543 9.19238C41.3128 8.83691 41.192 8.42904 41.192 7.96875C41.192 7.2806 41.4563 6.71777 41.985 6.28027C42.5182 5.83822 43.2359 5.61263 44.1383 5.60352H47.3717ZM42.8531 8.00977C42.8531 8.31966 42.9671 8.57259 43.1949 8.76855C43.4273 8.95996 43.7236 9.05566 44.0836 9.05566H45.7174V6.92285H44.1861C43.7805 6.92285 43.457 7.02539 43.2154 7.23047C42.9739 7.43555 42.8531 7.69531 42.8531 8.00977Z" fill="#2196F3"/>
<path d="M107.887 13H106.164V4.44141H101.782V13H100.06V3.04688H107.887V13ZM109.787 9.2334C109.787 8.50879 109.93 7.8571 110.217 7.27832C110.505 6.69499 110.908 6.24837 111.427 5.93848C111.947 5.62402 112.544 5.4668 113.218 5.4668C114.217 5.4668 115.025 5.78809 115.645 6.43066C116.27 7.07324 116.607 7.92546 116.657 8.9873L116.664 9.37695C116.664 10.1061 116.523 10.7578 116.24 11.332C115.962 11.9062 115.561 12.3506 115.037 12.665C114.517 12.9795 113.916 13.1367 113.232 13.1367C112.189 13.1367 111.352 12.7904 110.723 12.0977C110.099 11.4004 109.787 10.473 109.787 9.31543V9.2334ZM111.448 9.37695C111.448 10.138 111.605 10.735 111.92 11.168C112.234 11.5964 112.672 11.8105 113.232 11.8105C113.793 11.8105 114.228 11.5918 114.538 11.1543C114.852 10.7168 115.009 10.0765 115.009 9.2334C115.009 8.486 114.848 7.89355 114.524 7.45605C114.205 7.01855 113.77 6.7998 113.218 6.7998C112.676 6.7998 112.245 7.01628 111.926 7.44922C111.607 7.8776 111.448 8.52018 111.448 9.37695ZM124.826 9.37695C124.826 10.5208 124.566 11.4346 124.046 12.1182C123.527 12.7972 122.83 13.1367 121.955 13.1367C121.143 13.1367 120.494 12.8701 120.006 12.3369V15.8438H118.345V5.60352H119.876L119.945 6.35547C120.432 5.76302 121.095 5.4668 121.934 5.4668C122.836 5.4668 123.543 5.80404 124.053 6.47852C124.568 7.14844 124.826 8.0804 124.826 9.27441V9.37695ZM123.171 9.2334C123.171 8.49512 123.023 7.90951 122.727 7.47656C122.435 7.04362 122.016 6.82715 121.469 6.82715C120.79 6.82715 120.303 7.10742 120.006 7.66797V10.9492C120.307 11.5234 120.799 11.8105 121.483 11.8105C122.011 11.8105 122.424 11.5986 122.72 11.1748C123.021 10.7464 123.171 10.0993 123.171 9.2334ZM132.051 6.92285H129.652V13H127.99V6.92285H125.618V5.60352H132.051V6.92285ZM132.727 9.4043C132.727 8.19661 132.964 7.23958 133.438 6.5332C133.917 5.82227 134.582 5.4668 135.434 5.4668C135.781 5.4668 136.095 5.5306 136.378 5.6582V2.5H138.032V5.68555C138.324 5.53971 138.666 5.4668 139.057 5.4668C139.905 5.4668 140.568 5.81999 141.047 6.52637C141.53 7.22819 141.771 8.23535 141.771 9.54785C141.771 10.6553 141.53 11.5303 141.047 12.1729C140.564 12.8154 139.905 13.1367 139.071 13.1367C138.693 13.1367 138.347 13.0684 138.032 12.9316V15.8438H136.378V12.959C136.1 13.0775 135.781 13.1367 135.421 13.1367C134.623 13.1367 133.985 12.8428 133.507 12.2549C133.033 11.6624 132.775 10.849 132.734 9.81445L132.727 9.4043ZM140.11 9.4043C140.11 8.57487 139.978 7.93457 139.714 7.4834C139.449 7.02767 139.076 6.7998 138.593 6.7998C138.388 6.7998 138.201 6.82943 138.032 6.88867V11.7422C138.182 11.7878 138.374 11.8105 138.606 11.8105C139.609 11.8105 140.11 11.0085 140.11 9.4043ZM134.382 9.54785C134.382 10.2861 134.505 10.849 134.751 11.2363C134.997 11.6191 135.362 11.8105 135.845 11.8105C136.05 11.8105 136.227 11.7878 136.378 11.7422V6.86816C136.223 6.82259 136.05 6.7998 135.858 6.7998C135.384 6.7998 135.02 7.02083 134.765 7.46289C134.509 7.90039 134.382 8.59538 134.382 9.54785ZM143.172 9.2334C143.172 8.50879 143.316 7.8571 143.603 7.27832C143.89 6.69499 144.294 6.24837 144.813 5.93848C145.333 5.62402 145.93 5.4668 146.604 5.4668C147.602 5.4668 148.411 5.78809 149.031 6.43066C149.655 7.07324 149.992 7.92546 150.043 8.9873L150.049 9.37695C150.049 10.1061 149.908 10.7578 149.626 11.332C149.348 11.9062 148.947 12.3506 148.422 12.665C147.903 12.9795 147.301 13.1367 146.618 13.1367C145.574 13.1367 144.738 12.7904 144.109 12.0977C143.485 11.4004 143.172 10.473 143.172 9.31543V9.2334ZM144.834 9.37695C144.834 10.138 144.991 10.735 145.305 11.168C145.62 11.5964 146.057 11.8105 146.618 11.8105C147.178 11.8105 147.614 11.5918 147.923 11.1543C148.238 10.7168 148.395 10.0765 148.395 9.2334C148.395 8.486 148.233 7.89355 147.91 7.45605C147.591 7.01855 147.156 6.7998 146.604 6.7998C146.062 6.7998 145.631 7.01628 145.312 7.44922C144.993 7.8776 144.834 8.52018 144.834 9.37695ZM157.91 5.60352V13H156.249V6.94336H154.158L154.021 9.52051C153.934 10.7601 153.695 11.651 153.303 12.1934C152.916 12.7311 152.321 13 151.519 13H151.006L150.999 11.6191L151.341 11.585C151.706 11.5348 151.97 11.3138 152.134 10.9219C152.303 10.5254 152.41 9.80534 152.455 8.76172L152.592 5.60352H157.91ZM164.575 5.60352H166.23V13H164.575V8.06445L161.677 13H160.022V5.60352H161.677V10.5391L164.575 5.60352ZM167.966 9.2334C167.966 8.50879 168.109 7.8571 168.396 7.27832C168.683 6.69499 169.087 6.24837 169.606 5.93848C170.126 5.62402 170.723 5.4668 171.397 5.4668C172.395 5.4668 173.204 5.78809 173.824 6.43066C174.448 7.07324 174.786 7.92546 174.836 8.9873L174.843 9.37695C174.843 10.1061 174.701 10.7578 174.419 11.332C174.141 11.9062 173.74 12.3506 173.216 12.665C172.696 12.9795 172.094 13.1367 171.411 13.1367C170.367 13.1367 169.531 12.7904 168.902 12.0977C168.278 11.4004 167.966 10.473 167.966 9.31543V9.2334ZM169.627 9.37695C169.627 10.138 169.784 10.735 170.098 11.168C170.413 11.5964 170.85 11.8105 171.411 11.8105C171.971 11.8105 172.407 11.5918 172.717 11.1543C173.031 10.7168 173.188 10.0765 173.188 9.2334C173.188 8.486 173.026 7.89355 172.703 7.45605C172.384 7.01855 171.949 6.7998 171.397 6.7998C170.855 6.7998 170.424 7.01628 170.105 7.44922C169.786 7.8776 169.627 8.52018 169.627 9.37695Z" fill="#212121"/>
<path d="M229.958 8.73438H228.782V13H227.06V3.04688H228.782V7.23047H229.732L232.658 3.04688H234.777L231.359 7.81152L235.078 13H233L229.958 8.73438ZM235.652 9.2334C235.652 8.50879 235.796 7.8571 236.083 7.27832C236.37 6.69499 236.773 6.24837 237.293 5.93848C237.812 5.62402 238.409 5.4668 239.084 5.4668C240.082 5.4668 240.891 5.78809 241.51 6.43066C242.135 7.07324 242.472 7.92546 242.522 8.9873L242.529 9.37695C242.529 10.1061 242.388 10.7578 242.105 11.332C241.827 11.9062 241.426 12.3506 240.902 12.665C240.383 12.9795 239.781 13.1367 239.097 13.1367C238.054 13.1367 237.217 12.7904 236.589 12.0977C235.964 11.4004 235.652 10.473 235.652 9.31543V9.2334ZM237.313 9.37695C237.313 10.138 237.47 10.735 237.785 11.168C238.099 11.5964 238.537 11.8105 239.097 11.8105C239.658 11.8105 240.093 11.5918 240.403 11.1543C240.717 10.7168 240.875 10.0765 240.875 9.2334C240.875 8.486 240.713 7.89355 240.389 7.45605C240.07 7.01855 239.635 6.7998 239.084 6.7998C238.541 6.7998 238.111 7.01628 237.792 7.44922C237.473 7.8776 237.313 8.52018 237.313 9.37695ZM250.479 13H248.818V10.0127H245.94V13H244.279V5.60352H245.94V8.68652H248.818V5.60352H250.479V13ZM258.354 6.92285H255.954V13H254.293V6.92285H251.921V5.60352H258.354V6.92285ZM264.055 13C263.982 12.8587 263.918 12.6286 263.863 12.3096C263.335 12.861 262.687 13.1367 261.922 13.1367C261.179 13.1367 260.573 12.9248 260.103 12.501C259.634 12.0771 259.399 11.5531 259.399 10.9287C259.399 10.1403 259.691 9.53646 260.274 9.11719C260.862 8.69336 261.701 8.48145 262.79 8.48145H263.808V7.99609C263.808 7.61328 263.701 7.30794 263.487 7.08008C263.273 6.84766 262.947 6.73145 262.51 6.73145C262.131 6.73145 261.821 6.82715 261.58 7.01855C261.338 7.2054 261.218 7.44466 261.218 7.73633H259.557C259.557 7.33073 259.691 6.95247 259.96 6.60156C260.229 6.24609 260.593 5.9681 261.054 5.76758C261.518 5.56706 262.036 5.4668 262.605 5.4668C263.471 5.4668 264.162 5.68555 264.677 6.12305C265.192 6.55599 265.456 7.16667 265.47 7.95508V11.291C265.47 11.9564 265.563 12.4873 265.75 12.8838V13H264.055ZM262.229 11.8037C262.557 11.8037 262.865 11.724 263.152 11.5645C263.444 11.4049 263.663 11.1908 263.808 10.9219V9.52734H262.913C262.298 9.52734 261.835 9.63444 261.525 9.84863C261.215 10.0628 261.06 10.3659 261.06 10.7578C261.06 11.0768 261.165 11.332 261.375 11.5234C261.589 11.7103 261.874 11.8037 262.229 11.8037ZM270.118 10.0742H269.277V13H267.616V5.60352H269.277V8.55664H270.008L272.052 5.60352H274.103L271.43 9.14453L274.329 13H272.169L270.118 10.0742ZM281.342 6.92285H278.943V13H277.282V6.92285H274.909V5.60352H281.342V6.92285ZM284.521 7.95508H286.147C286.754 7.95508 287.282 8.0599 287.733 8.26953C288.185 8.47917 288.526 8.77311 288.759 9.15137C288.996 9.52962 289.114 9.9694 289.114 10.4707C289.114 11.2318 288.845 11.8424 288.308 12.3027C287.77 12.763 287.054 12.9954 286.161 13H282.859V5.60352H284.521V7.95508ZM292.006 13H290.345V5.60352H292.006V13ZM284.521 9.28809V11.6738H286.141C286.546 11.6738 286.865 11.5736 287.098 11.373C287.335 11.168 287.453 10.8786 287.453 10.5049C287.453 10.1312 287.337 9.83724 287.105 9.62305C286.877 9.4043 286.567 9.29264 286.175 9.28809H284.521Z" fill="#212121"/>
</svg>
